{
  "accessors": [
    {
      "bufferView": 2,
      "componentType": 5126,
      "count": 14210,
      "max": [
        0.041621576994657516,
        0.25728872418403625,
        0.041621580719947815
      ],
      "min": [
        -0.041621580719947815,
        2.411950845271349e-05,
        -0.041621580719947815
      ],
      "type": "VEC3"
    },
    {
      "bufferView": 2,
      "byteOffset": 170520,
      "componentType": 5126,
      "count": 14210,
      "max": [
        1.0,
        1.0,
        1.0
      ],
      "min": [
        -1.0,
        -1.0,
        -1.0
      ],
      "type": "VEC3"
    },
    {
      "bufferView": 1,
      "componentType": 5126,
      "count": 14210,
      "max": [
        0.0,
        0.0
      ],
      "min": [
        0.0,
        0.0
      ],
      "type": "VEC2"
    },
    {
      "bufferView": 0,
      "componentType": 5125,
      "count": 85248,
      "type": "SCALAR"
    },
    {
      "bufferView": 2,
      "byteOffset": 341040,
      "componentType": 5126,
      "count": 11650,
      "max": [
        0.020847627893090248,
        0.26032257080078125,
        0.02084765024483204
      ],
      "min": [
        -0.020847678184509277,
        0.24140194058418274,
        -0.020847652107477188
      ],
      "type": "VEC3"
    },
    {
      "bufferView": 2,
      "byteOffset": 480840,
      "componentType": 5126,
      "count": 11650,
      "max": [
        1.0,
        1.0,
        1.0
      ],
      "min": [
        -1.0,
        -1.0,
        -1.0
      ],
      "type": "VEC3"
    },
    {
      "bufferView": 1,
      "byteOffset": 113680,
      "componentType": 5126,
      "count": 11650,
      "max": [
        0.0,
        0.0
      ],
      "min": [
        0.0,
        0.0
      ],
      "type": "VEC2"
    },
    {
      "bufferView": 0,
      "byteOffset": 340992,
      "componentType": 5125,
      "count": 69888,
      "type": "SCALAR"
    },
    {
      "bufferView": 2,
      "byteOffset": 620640,
      "componentType": 5126,
      "count": 2583,
      "max": [
        0.030941098928451538,
        -0.001864854246377945,
        0.08243764191865921
      ],
      "min": [
        -0.030538462102413177,
        -0.017013704404234886,
        -0.07607564330101013
      ],
      "type": "VEC3"
    },
    {
      "bufferView": 2,
      "byteOffset": 651636,
      "componentType": 5126,
      "count": 2583,
      "max": [
        0.7409555315971375,
        0.9999881982803345,
        0.32079124450683594
      ],
      "min": [
        -0.7411584854125977,
        0.6616319417953491,
        -0.21961551904678345
      ],
      "type": "VEC3"
    },
    {
      "bufferView": 1,
      "byteOffset": 206880,
      "componentType": 5126,
      "count": 2583,
      "max": [
        0.6322237253189087,
        0.802193820476532
      ],
      "min": [
        0.36777645349502563,
        0.17395690083503723
      ],
      "type": "VEC2"
    },
    {
      "bufferView": 0,
      "byteOffset": 620544,
      "componentType": 5125,
      "count": 13824,
      "type": "SCALAR"
    },
    {
      "bufferView": 2,
      "byteOffset": 682632,
      "componentType": 5126,
      "count": 4226,
      "max": [
        0.04083056002855301,
        0.20238959789276123,
        0.04083056002855301
      ],
      "min": [
        -0.04083056002855301,
        0.0004507871635723859,
        -0.04083056002855301
      ],
      "type": "VEC3"
    },
    {
      "bufferView": 2,
      "byteOffset": 733344,
      "componentType": 5126,
      "count": 4226,
      "max": [
        1.0,
        1.0,
        1.0
      ],
      "min": [
        -1.0,
        -1.0,
        -1.0
      ],
      "type": "VEC3"
    },
    {
      "bufferView": 1,
      "byteOffset": 227544,
      "componentType": 5126,
      "count": 4226,
      "max": [
        0.0,
        0.0
      ],
      "min": [
        0.0,
        0.0
      ],
      "type": "VEC2"
    },
    {
      "bufferView": 0,
      "byteOffset": 675840,
      "componentType": 5125,
      "count": 25344,
      "type": "SCALAR"
    }
  ],
  "asset": {
    "extras": {
      "author": "robertrestupambudi (https://sketchfab.com/robertrestupambudi)",
      "license": "CC-BY-4.0 (http://creativecommons.org/licenses/by/4.0/)",
      "source": "https://sketchfab.com/3d-models/organic-fresh-milk-bottle-1l-3f09f749a5ca431d89423417ae306da6",
      "title": "Organic Fresh Milk Bottle 1L"
    },
    "generator": "Sketchfab-11.26.0",
    "version": "2.0"
  },
  "bufferViews": [
    {
      "buffer": 0,
      "byteLength": 777216,
      "name": "floatBufferViews",
      "target": 34963
    },
    {
      "buffer": 0,
      "byteLength": 261352,
      "byteOffset": 777216,
      "byteStride": 8,
      "name": "floatBufferViews",
      "target": 34962
    },
    {
      "buffer": 0,
      "byteLength": 784056,
      "byteOffset": 1038568,
      "byteStride": 12,
      "name": "floatBufferViews",
      "target": 34962
    }
  ],
  "buffers": [
    {
      "byteLength": 1822624,
      "uri": "scene.bin"
    }
  ],
  "extensionsUsed": [
    "KHR_materials_transmission"
  ],
  "images": [
    {
      "uri": "textures/flat-set-milk-labels-with-decorative-cow_23-2147591575_baseColor.png"
    }
  ],
  "materials": [
    {
      "alphaMode": "BLEND",
      "extensions": {
        "KHR_materials_transmission": {
          "transmissionFactor": 0.95
        }
      },
      "name": "Bottle",
      "pbrMetallicRoughness": {
        "baseColorFactor": [
          1.0,
          1.0,
          1.0,
          0.25
        ],
        "roughnessFactor": 0.05
      }
    },
    {
      "doubleSided": true,
      "name": "material",
      "pbrMetallicRoughness": {
        "baseColorFactor": [
          0.12686790641453513,
          0.5667818617660524,
          0.8300970234297829,
          1.0
        ],
        "metallicFactor": 0.0,
        "roughnessFactor": 0.5
      }
    },
    {
      "doubleSided": true,
      "name": "flat-set-milk-labels-with-decorative-cow_23-2147591575",
      "pbrMetallicRoughness": {
        "baseColorTexture": {
          "index": 0
        },
        "metallicFactor": 0.0,
        "roughnessFactor": 0.5
      }
    },
    {
      "doubleSided": true,
      "name": "Milk",
      "pbrMetallicRoughness": {
        "metallicFactor": 0.0,
        "roughnessFactor": 0.0
      }
    }
  ],
  "meshes": [
    {
      "name": "Object_0",
      "primitives": [
        {
          "attributes": {
            "NORMAL": 1,
            "POSITION": 0,
            "TEXCOORD_0": 2
          },
          "indices": 3,
          "material": 0,
          "mode": 4
        }
      ]
    },
    {
      "name": "Object_1",
      "primitives": [
        {
          "attributes": {
            "NORMAL": 5,
            "POSITION": 4,
            "TEXCOORD_0": 6
          },
          "indices": 7,
          "material": 1,
          "mode": 4
        }
      ]
    },
    {
      "name": "Object_2",
      "primitives": [
        {
          "attributes": {
            "NORMAL": 9,
            "POSITION": 8,
            "TEXCOORD_0": 10
          },
          "indices": 11,
          "material": 2,
          "mode": 4
        }
      ]
    },
    {
      "name": "Object_3",
      "primitives": [
        {
          "attributes": {
            "NORMAL": 13,
            "POSITION": 12,
            "TEXCOORD_0": 14
          },
          "indices": 15,
          "material": 3,
          "mode": 4
        }
      ]
    }
  ],
  "nodes": [
    {
      "children": [
        1
      ],
      "matrix": [
        1.0,
        0.0,
        0.0,
        0.0,
        0.0,
        2.220446049250313e-16,
        -1.0,
        0.0,
        0.0,
        1.0,
        2.220446049250313e-16,
        0.0,
        0.0,
        0.0,
        0.0,
        1.0
      ],
      "name": "Sketchfab_model"
    },
    {
      "children": [
        2
      ],
      "name": "root"
    },
    {
      "children": [
        3
      ],
      "matrix": [
        1.0,
        0.0,
        0.0,
        0.0,
        0.0,
        2.220446049250313e-16,
        1.0,
        0.0,
        0.0,
        -1.0,
        2.220446049250313e-16,
        0.0,
        0.0,
        0.0,
        0.0,
        1.0
      ],
      "name": "GLTF_SceneRootNode"
    },
    {
      "children": [
        4,
        5,
        7,
        9
      ],
      "name": "Organic Fresh Milk Bottle 1L_3"
    },
    {
      "mesh": 0,
      "name": "Object_4"
    },
    {
      "children": [
        6
      ],
      "name": "Cap_0"
    },
    {
      "mesh": 1,
      "name": "Object_6"
    },
    {
      "children": [
        8
      ],
      "matrix": [
        1.0,
        0.0,
        0.0,
        0.0,
        0.0,
        -1.685873969314855e-07,
        0.9999999999999858,
        0.0,
        0.0,
        -0.9999999999999858,
        -1.685873969314855e-07,
        0.0,
        -0.00036644935607910156,
        0.0953688994050026,
        0.04397295415401459,
        1.0
      ],
      "name": "Label_1"
    },
    {
      "mesh": 2,
      "name": "Object_8"
    },
    {
      "children": [
        10
      ],
      "name": "Milk_2"
    },
    {
      "mesh": 3,
      "name": "Object_10"
    }
  ],
  "samplers": [
    {
      "magFilter": 9729,
      "minFilter": 9987,
      "wrapS": 33071,
      "wrapT": 33071
    }
  ],
  "scene": 0,
  "scenes": [
    {
      "name": "Sketchfab_Scene",
      "nodes": [
        0
      ]
    }
  ],
  "textures": [
    {
      "sampler": 0,
      "source": 0
    }
  ]
}
