{
  "accessors": [
    {
      "bufferView": 2,
      "componentType": 5126,
      "count": 589,
      "max": [
        0.51019710302352905,
        0.54078233242034912,
        0.51019710302352905
      ],
      "min": [
        -0.51019710302352905,
        -0.5,
        -0.51019710302352905
      ],
      "type": "VEC3"
    },
    {
      "bufferView": 2,
      "byteOffset": 7068,
      "componentType": 5126,
      "count": 589,
      "max": [
        0.99999767541885376,
        0.99999898672103882,
        0.99999767541885376
      ],
      "min": [
        -0.99999767541885376,
        -0.99999946355819702,
        -0.99999767541885376
      ],
      "type": "VEC3"
    },
    {
      "bufferView": 1,
      "componentType": 5126,
      "count": 589,
      "max": [
        0.99310344457626343,
        0.49238497018814087
      ],
      "min": [
        0.0068965554237365723,
        0.003419339656829834
      ],
      "type": "VEC2"
    },
    {
      "bufferView": 0,
      "componentType": 5125,
      "count": 3099,
      "max": [
        588
      ],
      "min": [
        0
      ],
      "type": "SCALAR"
    },
    {
      "bufferView": 2,
      "byteOffset": 14136,
      "componentType": 5126,
      "count": 686,
      "max": [
        0.52112412452697754,
        0.55167001485824585,
        0.52112412452697754
      ],
      "min": [
        -0.52112412452697754,
        -0.51083517074584961,
        -0.52112412452697754
      ],
      "type": "VEC3"
    },
    {
      "bufferView": 2,
      "byteOffset": 22368,
      "componentType": 5126,
      "count": 686,
      "max": [
        0.99999606609344482,
        0.99999904632568359,
        0.99999606609344482
      ],
      "min": [
        -0.99999606609344482,
        -0.99999910593032837,
        -0.99999606609344482
      ],
      "type": "VEC3"
    },
    {
      "bufferView": 1,
      "byteOffset": 4712,
      "componentType": 5126,
      "count": 686,
      "max": [
        0.87500005960464478,
        1
      ],
      "min": [
        -0,
        0
      ],
      "type": "VEC2"
    },
    {
      "bufferView": 0,
      "byteOffset": 12396,
      "componentType": 5125,
      "count": 3108,
      "max": [
        685
      ],
      "min": [
        0
      ],
      "type": "SCALAR"
    },
    {
      "bufferView": 2,
      "byteOffset": 30600,
      "componentType": 5126,
      "count": 148,
      "max": [
        0.5,
        0.0024269521236419678,
        2
      ],
      "min": [
        -0.5,
        -0.5,
        -0.5
      ],
      "type": "VEC3"
    },
    {
      "bufferView": 2,
      "byteOffset": 32376,
      "componentType": 5126,
      "count": 148,
      "max": [
        0.98451167345046997,
        1,
        0.98269253969192505
      ],
      "min": [
        -0.98451167345046997,
        -0.9998248815536499,
        -0.98292428255081177
      ],
      "type": "VEC3"
    },
    {
      "bufferView": 1,
      "byteOffset": 10200,
      "componentType": 5126,
      "count": 148,
      "max": [
        0.875,
        1
      ],
      "min": [
        0.125,
        -0
      ],
      "type": "VEC2"
    },
    {
      "bufferView": 0,
      "byteOffset": 24828,
      "componentType": 5125,
      "count": 420,
      "max": [
        147
      ],
      "min": [
        0
      ],
      "type": "SCALAR"
    },
    {
      "bufferView": 2,
      "byteOffset": 34152,
      "componentType": 5126,
      "count": 148,
      "max": [
        0.5,
        0.0024269521236419678,
        2
      ],
      "min": [
        -0.5,
        -0.5,
        -0.5
      ],
      "type": "VEC3"
    },
    {
      "bufferView": 2,
      "byteOffset": 35928,
      "componentType": 5126,
      "count": 148,
      "max": [
        0.98451167345046997,
        1,
        0.98269253969192505
      ],
      "min": [
        -0.98451167345046997,
        -0.9998248815536499,
        -0.98292428255081177
      ],
      "type": "VEC3"
    },
    {
      "bufferView": 1,
      "byteOffset": 11384,
      "componentType": 5126,
      "count": 148,
      "max": [
        0.875,
        1
      ],
      "min": [
        0.125,
        -0
      ],
      "type": "VEC2"
    },
    {
      "bufferView": 0,
      "byteOffset": 26508,
      "componentType": 5125,
      "count": 420,
      "max": [
        147
      ],
      "min": [
        0
      ],
      "type": "SCALAR"
    },
    {
      "bufferView": 2,
      "byteOffset": 37704,
      "componentType": 5126,
      "count": 195,
      "max": [
        0.78287220001220703,
        0.5,
        0.7828744649887085
      ],
      "min": [
        -0.78287792205810547,
        -0.52405619621276855,
        -0.7828744649887085
      ],
      "type": "VEC3"
    },
    {
      "bufferView": 2,
      "byteOffset": 40044,
      "componentType": 5126,
      "count": 195,
      "max": [
        0.99776691198348999,
        1,
        0.99968469142913818
      ],
      "min": [
        -0.99784910678863525,
        -0.99998289346694946,
        -0.99968463182449341
      ],
      "type": "VEC3"
    },
    {
      "bufferView": 1,
      "byteOffset": 12568,
      "componentType": 5126,
      "count": 195,
      "max": [
        0.875,
        1
      ],
      "min": [
        0.125,
        -0
      ],
      "type": "VEC2"
    },
    {
      "bufferView": 0,
      "byteOffset": 28188,
      "componentType": 5125,
      "count": 588,
      "max": [
        194
      ],
      "min": [
        0
      ],
      "type": "SCALAR"
    },
    {
      "bufferView": 2,
      "byteOffset": 42384,
      "componentType": 5126,
      "count": 195,
      "max": [
        0.78287220001220703,
        0.5,
        0.7828744649887085
      ],
      "min": [
        -0.78287792205810547,
        -0.52405619621276855,
        -0.7828744649887085
      ],
      "type": "VEC3"
    },
    {
      "bufferView": 2,
      "byteOffset": 44724,
      "componentType": 5126,
      "count": 195,
      "max": [
        0.99776691198348999,
        1,
        0.99968469142913818
      ],
      "min": [
        -0.99784910678863525,
        -0.99998289346694946,
        -0.99968463182449341
      ],
      "type": "VEC3"
    },
    {
      "bufferView": 1,
      "byteOffset": 14128,
      "componentType": 5126,
      "count": 195,
      "max": [
        0.875,
        1
      ],
      "min": [
        0.125,
        -0
      ],
      "type": "VEC2"
    },
    {
      "bufferView": 0,
      "byteOffset": 30540,
      "componentType": 5125,
      "count": 588,
      "max": [
        194
      ],
      "min": [
        0
      ],
      "type": "SCALAR"
    }
  ],
  "asset": {
    "extras": {
      "author": "PolyChromicDesing (https://sketchfab.com/PolyChromicDesing)",
      "license": "CC-BY-4.0 (http://creativecommons.org/licenses/by/4.0/)",
      "source": "https://sketchfab.com/3d-models/marshmallow-48290f2ff86f45e79e86b6e7576befd2",
      "title": "Marshmallow"
    },
    "generator": "Sketchfab-9.93.0",
    "version": "2.0"
  },
  "bufferViews": [
    {
      "buffer": 0,
      "byteLength": 32892,
      "byteOffset": 0,
      "name": "floatBufferViews",
      "target": 34963
    },
    {
      "buffer": 0,
      "byteLength": 15688,
      "byteOffset": 32892,
      "byteStride": 8,
      "name": "floatBufferViews",
      "target": 34962
    },
    {
      "buffer": 0,
      "byteLength": 47064,
      "byteOffset": 48580,
      "byteStride": 12,
      "name": "floatBufferViews",
      "target": 34962
    }
  ],
  "buffers": [
    {
      "byteLength": 95644,
      "uri": "scene.bin"
    }
  ],
  "extensionsUsed": [
    "KHR_materials_unlit"
  ],
  "images": [
    {
      "uri": "textures/lambert2_baseColor.png"
    }
  ],
  "materials": [
    {
      "doubleSided": true,
      "emissiveFactor": [
        0,
        0,
        0
      ],
      "extensions": {
        "KHR_materials_unlit": {}
      },
      "name": "lambert2",
      "pbrMetallicRoughness": {
        "baseColorFactor": [
          1,
          1,
          1,
          1
        ],
        "baseColorTexture": {
          "index": 0,
          "texCoord": 0
        },
        "metallicFactor": 0,
        "roughnessFactor": 1
      }
    },
    {
      "doubleSided": false,
      "emissiveFactor": [
        0,
        0,
        0
      ],
      "extensions": {
        "KHR_materials_unlit": {}
      },
      "name": "lambert3",
      "pbrMetallicRoughness": {
        "baseColorFactor": [
          1,
          0.93866217790174034,
          0.59784488044925654,
          1
        ],
        "metallicFactor": 0,
        "roughnessFactor": 1
      }
    },
    {
      "doubleSided": true,
      "emissiveFactor": [
        0,
        0,
        0
      ],
      "extensions": {
        "KHR_materials_unlit": {}
      },
      "name": "lambert4",
      "pbrMetallicRoughness": {
        "baseColorFactor": [
          0,
          0,
          0,
          1
        ],
        "metallicFactor": 0,
        "roughnessFactor": 1
      }
    }
  ],
  "meshes": [
    {
      "name": "pCube1_lambert2_0",
      "primitives": [
        {
          "attributes": {
            "NORMAL": 1,
            "POSITION": 0,
            "TEXCOORD_0": 2
          },
          "indices": 3,
          "material": 0,
          "mode": 4
        }
      ]
    },
    {
      "name": "pCube2_lambert3_0",
      "primitives": [
        {
          "attributes": {
            "NORMAL": 5,
            "POSITION": 4,
            "TEXCOORD_0": 6
          },
          "indices": 7,
          "material": 1,
          "mode": 4
        }
      ]
    },
    {
      "name": "Ice_Cube_V2:pCube3_lambert4_0",
      "primitives": [
        {
          "attributes": {
            "NORMAL": 9,
            "POSITION": 8,
            "TEXCOORD_0": 10
          },
          "indices": 11,
          "material": 2,
          "mode": 4
        }
      ]
    },
    {
      "name": "Ice_Cube_V2:pCube4_lambert4_0",
      "primitives": [
        {
          "attributes": {
            "NORMAL": 13,
            "POSITION": 12,
            "TEXCOORD_0": 14
          },
          "indices": 15,
          "material": 2,
          "mode": 4
        }
      ]
    },
    {
      "name": "Ice_Cube_V2:pCube6_lambert4_0",
      "primitives": [
        {
          "attributes": {
            "NORMAL": 17,
            "POSITION": 16,
            "TEXCOORD_0": 18
          },
          "indices": 19,
          "material": 2,
          "mode": 4
        }
      ]
    },
    {
      "name": "pCube6_lambert4_0",
      "primitives": [
        {
          "attributes": {
            "NORMAL": 21,
            "POSITION": 20,
            "TEXCOORD_0": 22
          },
          "indices": 23,
          "material": 2,
          "mode": 4
        }
      ]
    }
  ],
  "nodes": [
    {
      "children": [
        1
      ],
      "name": "RootNode (gltf orientation matrix)",
      "rotation": [
        -0.70710678118654746,
        -0,
        -0,
        0.70710678118654757
      ]
    },
    {
      "children": [
        2
      ],
      "name": "RootNode (model correction matrix)"
    },
    {
      "children": [
        3
      ],
      "matrix": [
        1,
        0,
        0,
        0,
        0,
        0,
        1,
        0,
        0,
        -1,
        0,
        0,
        0,
        0,
        0,
        1
      ],
      "name": "05399c86c17f47f3a6eea6cd232751b2.fbx"
    },
    {
      "children": [
        4,
        6,
        8,
        10,
        12,
        14
      ],
      "name": "RootNode"
    },
    {
      "children": [
        5
      ],
      "matrix": [
        0.8033825159072876,
        0,
        0,
        0,
        0,
        1,
        0,
        0,
        0,
        0,
        0.8033825159072876,
        0,
        0,
        0.75,
        0,
        1
      ],
      "name": "pCube1"
    },
    {
      "mesh": 0,
      "name": "pCube1_lambert2_0"
    },
    {
      "children": [
        7
      ],
      "matrix": [
        0.8033825159072876,
        0,
        0,
        0,
        0,
        1,
        0,
        0,
        0,
        0,
        0.8033825159072876,
        0,
        0,
        0.75,
        0,
        1
      ],
      "name": "pCube2"
    },
    {
      "mesh": 1,
      "name": "pCube2_lambert3_0"
    },
    {
      "children": [
        9
      ],
      "matrix": [
        0.05000000074505806,
        0,
        0,
        0,
        0,
        0.5,
        0,
        0,
        0,
        0,
        0.05000000074505806,
        0,
        0.15000000596046448,
        0.25,
        0,
        1
      ],
      "name": "Ice_Cube_V2:pCube3"
    },
    {
      "mesh": 2,
      "name": "Ice_Cube_V2:pCube3_lambert4_0"
    },
    {
      "children": [
        11
      ],
      "matrix": [
        0.05000000074505806,
        0,
        0,
        0,
        0,
        0.5,
        0,
        0,
        0,
        0,
        0.05000000074505806,
        0,
        -0.15000000596046448,
        0.25,
        0,
        1
      ],
      "name": "Ice_Cube_V2:pCube4"
    },
    {
      "mesh": 3,
      "name": "Ice_Cube_V2:pCube4_lambert4_0"
    },
    {
      "children": [
        13
      ],
      "matrix": [
        -0.040622830473344772,
        -0.015285470991310182,
        -0.0048549925972896724,
        0,
        0.17096245436072127,
        -0.40038541677746903,
        -0.16990739136603158,
        0,
        0.0013978014451700741,
        -0.016545057893723156,
        0.040394778655480475,
        0,
        -0.46701106429100037,
        0.80659854412078857,
        0.10131531208753586,
        1
      ],
      "name": "Ice_Cube_V2:pCube6"
    },
    {
      "mesh": 4,
      "name": "Ice_Cube_V2:pCube6_lambert4_0"
    },
    {
      "children": [
        15
      ],
      "matrix": [
        -0.0048549925972897322,
        -0.015285470991309908,
        0.040622830473344869,
        0,
        -0.16990739136603225,
        -0.40038541677746997,
        -0.17096245436071883,
        0,
        0.04039477865548044,
        -0.016545057893723243,
        -0.001397801445169936,
        0,
        0.4699999988079071,
        0.80659854412078857,
        0.10131531208753586,
        1
      ],
      "name": "pCube6"
    },
    {
      "mesh": 5,
      "name": "pCube6_lambert4_0"
    }
  ],
  "samplers": [
    {
      "magFilter": 9729,
      "minFilter": 9987,
      "wrapS": 10497,
      "wrapT": 10497
    }
  ],
  "scene": 0,
  "scenes": [
    {
      "name": "OSG_Scene",
      "nodes": [
        0
      ]
    }
  ],
  "textures": [
    {
      "sampler": 0,
      "source": 0
    }
  ]
}

